{"title":"[MARATHI] Pune 52. - 2013 - WebRip x264 MP3 ESubs [TMB]","uid":10410650,"size":523358081,"categoryP":"video","categoryS":"movies","magnet":"?xt=urn:btih:b87405cc0f1392699d6b2698133ea3c3d67342da&amp;dn=%5BMARATHI%5D+Pune+52.+-+2013+-+WebRip+x264+MP3+ESubs+%5BTMB%5D&amp;tr=udp%3A%2F%2Ftracker.openbittorrent.com%3A80&amp;tr=udp%3A%2F%2Fopen.demonii.com%3A1337&amp;tr=udp%3A%2F%2Ftracker.coppersurfer.tk%3A6969&amp;tr=udp%3A%2F%2Fexodus.desync.com%3A6969","seeders":1,"leechers":3,"uploader":"SJonam","files":3,"time":1403484055,"description":" &lt;a href=&quot;http://i26.photobucket.com/albums/c119/manojb/good.gif&quot; rel=&quot;nofollow&quot; target=&quot;_NEW&quot;&gt;http://i26.photobucket.com/albums/c119/manojb/good.gif&lt;/a&gt; &lt;a href=&quot;\nhttp://s1.postimg.org/lstawcgpn/pune_52.jpg&quot; rel=&quot;nofollow&quot; target=&quot;_NEW&quot;&gt;\nhttp://s1.postimg.org/lstawcgpn/pune_52.jpg&lt;/a&gt; &lt;a href=&quot;\nhttp://s2.postimg.org/uhc0cn05h/Pune_52_1.jpg&quot; rel=&quot;nofollow&quot; target=&quot;_NEW&quot;&gt;\nhttp://s2.postimg.org/uhc0cn05h/Pune_52_1.jpg&lt;/a&gt; &lt;a href=&quot;\nhttp://s2.postimg.org/jhvuy5g1x/Pune_52_2.jpg&quot; rel=&quot;nofollow&quot; target=&quot;_NEW&quot;&gt;\nhttp://s2.postimg.org/jhvuy5g1x/Pune_52_2.jpg&lt;/a&gt; &lt;a href=&quot;\nhttp://s2.postimg.org/j7ocet1fp/Pune_52_3.jpg&quot; rel=&quot;nofollow&quot; target=&quot;_NEW&quot;&gt;\nhttp://s2.postimg.org/j7ocet1fp/Pune_52_3.jpg&lt;/a&gt; &lt;a href=&quot;\nhttp://s2.postimg.org/408cug9l1/Pune_52_4.jpg&quot; rel=&quot;nofollow&quot; target=&quot;_NEW&quot;&gt;\nhttp://s2.postimg.org/408cug9l1/Pune_52_4.jpg&lt;/a&gt; &lt;a href=&quot;\nhttp://s2.postimg.org/ao4yh1t39/Pune_52_5.jpg&quot; rel=&quot;nofollow&quot; target=&quot;_NEW&quot;&gt;\nhttp://s2.postimg.org/ao4yh1t39/Pune_52_5.jpg&lt;/a&gt; &lt;a href=&quot;\nhttp://s2.postimg.org/d9aj4kih1/Pune_52_6.jpg&quot; rel=&quot;nofollow&quot; target=&quot;_NEW&quot;&gt;\nhttp://s2.postimg.org/d9aj4kih1/Pune_52_6.jpg&lt;/a&gt;\n\n\nInfo - \nPune-52 (2013) \n\nDirector: Nikhil Mahajan\nWriters: Girish Kulkarni (dialogue), Nikhil Mahajan (original story and screenplay)\nStars: Girish Kulkarni, Sonali Kulkarni, Sai Tamhankar\n\nGenres: Drama | Thriller \n\nCountry: India\nLanguage: Marathi\nRelease Date: 18 January 2013 (India)\n\nMedia Info - \nGeneral\nComplete name                  : Pune 52 - 2013 - WebRip x264 MP3 ESubs [TMB].avi\nFormat                         : AVI\nFormat/Info                    : Audio Video Interleave\nFile size                      : 494 MiB\nDuration                       : 2h 2mn\nOverall bit rate               : 564 Kbps\nWriting application            : Lavf54.63.104\n\nVideo\nFormat                         : AVC\nFormat/Info                    : Advanced Video Codec\nFormat profile                 : &lt;a class=&quot;__cf_email__&quot; href=&quot;/cdn-cgi/l/email-protection&quot; data-cfemail=&quot;feb39f9790beb2cdd0ce&quot;&gt;[email&amp;#160;protected]&lt;/a&gt;&lt;script cf-hash='f9e31' type=&quot;text/javascript&quot;&gt;\n/* &lt;![CDATA[ */!function(){try{var t=&quot;currentScript&quot;in document?document.currentScript:function(){for(var t=document.getElementsByTagName(&quot;script&quot;),e=t.length;e--;)if(t[e].getAttribute(&quot;cf-hash&quot;))return t[e]}();if(t&amp;&amp;t.previousSibling){var e,r,n,i,c=t.previousSibling,a=c.getAttribute(&quot;data-cfemail&quot;);if(a){for(e=&quot;&quot;,r=parseInt(a.substr(0,2),16),n=2;a.length-n;n+=2)i=parseInt(a.substr(n,2),16)^r,e+=String.fromCharCode(i);e=document.createTextNode(e),c.parentNode.replaceChild(e,c)}}}catch(u){}}();/* ]]&gt; */&lt;/script&gt;\nFormat settings, CABAC         : Yes\nFormat settings, ReFrames      : 1 frame\nCodec ID                       : H264\nDuration                       : 2h 2mn\nBit rate                       : 297 Kbps\nWidth                          : 720 pixels\nHeight                         : 304 pixels\nDisplay aspect ratio           : 2.35:1\nFrame rate mode                : Variable\nFrame rate                     : 24.000 fps\nColor space                    : YUV\nChroma subsampling             : 4:2:0\nBit depth                      : 8 bits\nScan type                      : Progressive\nBits/(Pixel*Frame)             : 0.057\nStream size                    : 259 MiB (53%)\nWriting library                : x264 core 129\n\nAudio\nFormat                         : MPEG Audio\nFormat version                 : Version 1\nFormat profile                 : Layer 3\nMode                           : Joint stereo\nMode extension                 : MS Stereo\nCodec ID                       : 55\nCodec ID/Hint                  : MP3\nDuration                       : 2h 2mn\nBit rate mode                  : Constant\nBit rate                       : 256 Kbps\nChannel(s)                     : 2 channels\nSampling rate                  : 44.1 KHz\nCompression mode               : Lossy\nStream size                    : 224 MiB (45%)\nAlignment                      : Aligned on interleaves\nInterleave, duration           : 26 ms (0.63 video frame)\nWriting library                : LAME3.99.5\n\n\nSample in Torrent...\n\n\nRipper : Saket\n\nSeeding will be very slow... &amp; can be disrupted according to load shedding in my area...\n\n\nEnjoy TMB Release...!\n","torrent":{"xt":"urn:btih:b87405cc0f1392699d6b2698133ea3c3d67342da","amp;dn":"%5BMARATHI%5D+Pune+52.+-+2013+-+WebRip+x264+MP3+ESubs+%5BTMB%5D","amp;tr":["udp%3A%2F%2Ftracker.openbittorrent.com%3A80","udp%3A%2F%2Fopen.demonii.com%3A1337","udp%3A%2F%2Ftracker.coppersurfer.tk%3A6969","udp%3A%2F%2Fexodus.desync.com%3A6969"],"infoHash":"b87405cc0f1392699d6b2698133ea3c3d67342da","infoHashBuffer":{"type":"Buffer","data":[184,116,5,204,15,19,146,105,157,107,38,152,19,62,163,195,214,115,66,218]},"announce":[],"urlList":[]}}